# xmcd CD database file
#
# Track frame offsets:
#	152
#	30522
#	53637
#	65337
#	92865
#	115795
#	146447
#	164775
#	196975
#	249565
#	267287
#	280652
#	305827
#
# Disc length: 4439 seconds
#
# Revision: 0
# Processed by: cddbd v1.5.2PL0 Copyright (c) Steve Scherf et al.
# Submitted via: CDex 1.51
#
DISCID=ba11550d
DTITLE=Bugs Beddow Band - Live - 1997 Mid-Michigan Blues Fest
DYEAR=1997
DGENRE=Blues
TTITLE0=She Caught The Katie
TTITLE1=Leave Your Hat On
TTITLE2=Poontango
TTITLE3=Woman Crazy Man
TTITLE4=Cold SHot
TTITLE5=Funkalishus
TTITLE6=Once You Get A Taste
TTITLE7=One Way Out
TTITLE8=My Babe
TTITLE9=Cheap Sunglasses
TTITLE10=I'm The Slime
TTITLE11=Unchain My Heart
TTITLE12=Driving Wheel
EXTD=YEAR: 1997
EXTT0=
EXTT1=
EXTT2=
EXTT3=
EXTT4=
EXTT5=
EXTT6=
EXTT7=
EXTT8=
EXTT9=
EXTT10=
EXTT11=
EXTT12=
PLAYORDER=
